REM MD5 aa99387a368d1dd3b790e8cf24ade279
FILE "Welcome House 2 - Keaton and His Uncle (Japan).bin" BINARY
  TRACK 01 MODE2/2352
    INDEX 01 00:00:00
  TRACK 02 AUDIO
    INDEX 00 22:20:04
    INDEX 01 22:22:04
  TRACK 03 AUDIO
    INDEX 00 24:36:42
    INDEX 01 24:38:42
  TRACK 04 AUDIO
    INDEX 00 26:56:53
    INDEX 01 26:58:53
  TRACK 05 AUDIO
    INDEX 00 28:26:19
    INDEX 01 28:28:19
  TRACK 06 AUDIO
    INDEX 00 30:07:15
    INDEX 01 30:09:15
REM LEADOUT 33:17:42
